<mxfile host="app.diagrams.net" modified="2022-05-31T08:51:23.950Z" agent="5.0 (Windows NT 10.0; Win64; x64) AppleWebKit/537.36 (KHTML, like Gecko) Chrome/101.0.4951.64 Safari/537.36 Edg/101.0.1210.53" etag="hQJ9ohC_KZKGHNa0NrMM" version="18.1.3" type="github">
  <diagram id="C5RBs43oDa-KdzZeNtuy" name="Page-1">
    <mxGraphModel dx="1497" dy="962" grid="1" gridSize="10" guides="1" tooltips="1" connect="1" arrows="1" fold="1" page="1" pageScale="1" pageWidth="827" pageHeight="1169" math="0" shadow="0">
      <root>
        <mxCell id="WIyWlLk6GJQsqaUBKTNV-0" />
        <mxCell id="WIyWlLk6GJQsqaUBKTNV-1" parent="WIyWlLk6GJQsqaUBKTNV-0" />
        <mxCell id="GCLJ17-MlBXP42xAcx6e-48" style="edgeStyle=orthogonalEdgeStyle;rounded=0;orthogonalLoop=1;jettySize=auto;html=1;exitX=0.5;exitY=1;exitDx=0;exitDy=0;entryX=0.5;entryY=0;entryDx=0;entryDy=0;" edge="1" parent="WIyWlLk6GJQsqaUBKTNV-1" source="GCLJ17-MlBXP42xAcx6e-45" target="GCLJ17-MlBXP42xAcx6e-46">
          <mxGeometry relative="1" as="geometry" />
        </mxCell>
        <mxCell id="GCLJ17-MlBXP42xAcx6e-45" value="Initialize(IntStack &amp;amp;s, int max)" style="ellipse;whiteSpace=wrap;html=1;" vertex="1" parent="WIyWlLk6GJQsqaUBKTNV-1">
          <mxGeometry x="80" y="170" width="120" height="80" as="geometry" />
        </mxCell>
        <mxCell id="GCLJ17-MlBXP42xAcx6e-53" style="edgeStyle=orthogonalEdgeStyle;rounded=0;orthogonalLoop=1;jettySize=auto;html=1;exitX=0.5;exitY=1;exitDx=0;exitDy=0;entryX=0.5;entryY=0;entryDx=0;entryDy=0;" edge="1" parent="WIyWlLk6GJQsqaUBKTNV-1" source="GCLJ17-MlBXP42xAcx6e-46" target="GCLJ17-MlBXP42xAcx6e-54">
          <mxGeometry relative="1" as="geometry">
            <mxPoint x="139.52631578947376" y="380" as="targetPoint" />
          </mxGeometry>
        </mxCell>
        <mxCell id="GCLJ17-MlBXP42xAcx6e-46" value="s-&amp;gt;ptr = 0" style="rounded=0;whiteSpace=wrap;html=1;" vertex="1" parent="WIyWlLk6GJQsqaUBKTNV-1">
          <mxGeometry x="80" y="280" width="120" height="60" as="geometry" />
        </mxCell>
        <mxCell id="GCLJ17-MlBXP42xAcx6e-49" value="IntStack" style="swimlane;fontStyle=0;childLayout=stackLayout;horizontal=1;startSize=30;horizontalStack=0;resizeParent=1;resizeParentMax=0;resizeLast=0;collapsible=1;marginBottom=0;" vertex="1" parent="WIyWlLk6GJQsqaUBKTNV-1">
          <mxGeometry x="70" y="30" width="140" height="120" as="geometry" />
        </mxCell>
        <mxCell id="GCLJ17-MlBXP42xAcx6e-50" value="int max" style="text;strokeColor=none;fillColor=none;align=left;verticalAlign=middle;spacingLeft=4;spacingRight=4;overflow=hidden;points=[[0,0.5],[1,0.5]];portConstraint=eastwest;rotatable=0;" vertex="1" parent="GCLJ17-MlBXP42xAcx6e-49">
          <mxGeometry y="30" width="140" height="30" as="geometry" />
        </mxCell>
        <mxCell id="GCLJ17-MlBXP42xAcx6e-51" value="int ptr" style="text;strokeColor=none;fillColor=none;align=left;verticalAlign=middle;spacingLeft=4;spacingRight=4;overflow=hidden;points=[[0,0.5],[1,0.5]];portConstraint=eastwest;rotatable=0;" vertex="1" parent="GCLJ17-MlBXP42xAcx6e-49">
          <mxGeometry y="60" width="140" height="30" as="geometry" />
        </mxCell>
        <mxCell id="GCLJ17-MlBXP42xAcx6e-52" value="int* stk" style="text;strokeColor=none;fillColor=none;align=left;verticalAlign=middle;spacingLeft=4;spacingRight=4;overflow=hidden;points=[[0,0.5],[1,0.5]];portConstraint=eastwest;rotatable=0;" vertex="1" parent="GCLJ17-MlBXP42xAcx6e-49">
          <mxGeometry y="90" width="140" height="30" as="geometry" />
        </mxCell>
        <mxCell id="GCLJ17-MlBXP42xAcx6e-63" style="edgeStyle=orthogonalEdgeStyle;rounded=0;orthogonalLoop=1;jettySize=auto;html=1;exitX=0.5;exitY=1;exitDx=0;exitDy=0;entryX=0.5;entryY=0;entryDx=0;entryDy=0;" edge="1" parent="WIyWlLk6GJQsqaUBKTNV-1" source="GCLJ17-MlBXP42xAcx6e-54" target="GCLJ17-MlBXP42xAcx6e-61">
          <mxGeometry relative="1" as="geometry" />
        </mxCell>
        <mxCell id="GCLJ17-MlBXP42xAcx6e-54" value="s-&amp;gt;stk[max]" style="rounded=0;whiteSpace=wrap;html=1;" vertex="1" parent="WIyWlLk6GJQsqaUBKTNV-1">
          <mxGeometry x="80" y="370" width="120" height="60" as="geometry" />
        </mxCell>
        <mxCell id="GCLJ17-MlBXP42xAcx6e-60" style="edgeStyle=orthogonalEdgeStyle;rounded=0;orthogonalLoop=1;jettySize=auto;html=1;exitX=0.5;exitY=1;exitDx=0;exitDy=0;entryX=0.5;entryY=0;entryDx=0;entryDy=0;" edge="1" parent="WIyWlLk6GJQsqaUBKTNV-1" source="GCLJ17-MlBXP42xAcx6e-55" target="GCLJ17-MlBXP42xAcx6e-59">
          <mxGeometry relative="1" as="geometry" />
        </mxCell>
        <mxCell id="GCLJ17-MlBXP42xAcx6e-55" value="s-&amp;gt;max = max" style="rounded=0;whiteSpace=wrap;html=1;" vertex="1" parent="WIyWlLk6GJQsqaUBKTNV-1">
          <mxGeometry x="80" y="570" width="120" height="60" as="geometry" />
        </mxCell>
        <mxCell id="GCLJ17-MlBXP42xAcx6e-59" value="return 0" style="rounded=0;whiteSpace=wrap;html=1;" vertex="1" parent="WIyWlLk6GJQsqaUBKTNV-1">
          <mxGeometry x="80" y="670" width="120" height="60" as="geometry" />
        </mxCell>
        <mxCell id="GCLJ17-MlBXP42xAcx6e-64" style="edgeStyle=orthogonalEdgeStyle;rounded=0;orthogonalLoop=1;jettySize=auto;html=1;exitX=0.5;exitY=1;exitDx=0;exitDy=0;entryX=0.5;entryY=0;entryDx=0;entryDy=0;" edge="1" parent="WIyWlLk6GJQsqaUBKTNV-1" source="GCLJ17-MlBXP42xAcx6e-61" target="GCLJ17-MlBXP42xAcx6e-55">
          <mxGeometry relative="1" as="geometry" />
        </mxCell>
        <mxCell id="GCLJ17-MlBXP42xAcx6e-65" value="T" style="edgeStyle=orthogonalEdgeStyle;rounded=0;orthogonalLoop=1;jettySize=auto;html=1;exitX=1;exitY=0.5;exitDx=0;exitDy=0;entryX=0;entryY=0.5;entryDx=0;entryDy=0;" edge="1" parent="WIyWlLk6GJQsqaUBKTNV-1" source="GCLJ17-MlBXP42xAcx6e-61" target="GCLJ17-MlBXP42xAcx6e-67">
          <mxGeometry relative="1" as="geometry">
            <mxPoint x="236" y="497.47368421052647" as="targetPoint" />
          </mxGeometry>
        </mxCell>
        <mxCell id="GCLJ17-MlBXP42xAcx6e-66" value="F" style="edgeStyle=orthogonalEdgeStyle;rounded=0;orthogonalLoop=1;jettySize=auto;html=1;" edge="1" parent="WIyWlLk6GJQsqaUBKTNV-1" source="GCLJ17-MlBXP42xAcx6e-61" target="GCLJ17-MlBXP42xAcx6e-55">
          <mxGeometry x="-0.5094" relative="1" as="geometry">
            <mxPoint as="offset" />
          </mxGeometry>
        </mxCell>
        <mxCell id="GCLJ17-MlBXP42xAcx6e-61" value="stk[max] == NULL?" style="rhombus;whiteSpace=wrap;html=1;" vertex="1" parent="WIyWlLk6GJQsqaUBKTNV-1">
          <mxGeometry x="100" y="457" width="80" height="80" as="geometry" />
        </mxCell>
        <mxCell id="GCLJ17-MlBXP42xAcx6e-67" value="return -1" style="rounded=0;whiteSpace=wrap;html=1;" vertex="1" parent="WIyWlLk6GJQsqaUBKTNV-1">
          <mxGeometry x="216" y="467" width="120" height="60" as="geometry" />
        </mxCell>
        <mxCell id="GCLJ17-MlBXP42xAcx6e-69" style="edgeStyle=orthogonalEdgeStyle;rounded=0;orthogonalLoop=1;jettySize=auto;html=1;exitX=0.5;exitY=1;exitDx=0;exitDy=0;entryX=0.5;entryY=0;entryDx=0;entryDy=0;" edge="1" parent="WIyWlLk6GJQsqaUBKTNV-1" source="GCLJ17-MlBXP42xAcx6e-68" target="GCLJ17-MlBXP42xAcx6e-70">
          <mxGeometry relative="1" as="geometry">
            <mxPoint x="520.3157894736843" y="160" as="targetPoint" />
          </mxGeometry>
        </mxCell>
        <mxCell id="GCLJ17-MlBXP42xAcx6e-68" value="Push" style="ellipse;whiteSpace=wrap;html=1;" vertex="1" parent="WIyWlLk6GJQsqaUBKTNV-1">
          <mxGeometry x="460" y="50" width="120" height="80" as="geometry" />
        </mxCell>
        <mxCell id="GCLJ17-MlBXP42xAcx6e-70" value="" style="rounded=0;whiteSpace=wrap;html=1;" vertex="1" parent="WIyWlLk6GJQsqaUBKTNV-1">
          <mxGeometry x="460" y="160" width="120" height="60" as="geometry" />
        </mxCell>
      </root>
    </mxGraphModel>
  </diagram>
</mxfile>
